<?xml version="1.0" standalone="no"?>
<!DOCTYPE svg PUBLIC "-//W3C//DTD SVG 20010904//EN"
 "http://www.w3.org/TR/2001/REC-SVG-20010904/DTD/svg10.dtd">
<svg version="1.0" xmlns="http://www.w3.org/2000/svg"
 width="450.000000pt" height="450.000000pt" viewBox="0 0 450.000000 450.000000"
 preserveAspectRatio="xMidYMid meet">

<g transform="translate(0.000000,450.000000) scale(0.100000,-0.100000)"
fill="#000000" stroke="none">
<path d="M924 3922 c-9 -6 -44 -124 -44 -148 0 -3 32 -3 71 1 69 7 71 7 67
-15 -3 -26 -17 -35 -73 -47 -36 -7 -41 -12 -55 -55 -8 -26 -26 -59 -39 -74
-26 -30 -68 -172 -54 -184 7 -7 257 -70 276 -70 9 0 22 31 32 78 6 29 5 32
-18 32 -13 0 -30 7 -37 15 -19 23 6 48 42 41 15 -3 28 -1 28 4 0 6 -8 10 -19
10 -10 0 -24 7 -32 16 -21 26 2 49 47 47 l39 -1 -37 11 c-68 19 -61 67 9 67
27 0 42 4 38 10 -3 6 -17 10 -31 10 -28 0 -42 25 -27 49 7 11 22 15 45 13 34
-3 34 -3 46 55 9 45 9 60 -1 69 -6 6 -61 23 -122 38 -60 15 -117 29 -125 31
-8 3 -20 1 -26 -3z m149 -52 c31 -7 57 -17 57 -23 0 -5 -7 -6 -16 -3 -9 4 -37
11 -63 18 -25 6 -50 15 -56 21 -7 7 -5 8 5 5 8 -3 41 -11 73 -18z m-126 -446
c-3 -3 -12 -4 -19 -1 -8 3 -5 6 6 6 11 1 17 -2 13 -5z"/>
<path d="M3441 3867 l-55 -42 63 -3 c34 -2 87 -2 118 0 l55 3 -57 43 c-32 23
-60 42 -64 41 -3 0 -30 -19 -60 -42z"/>
<path d="M4435 3859 c-27 -11 -93 -36 -145 -56 -52 -20 -97 -37 -99 -39 -3 -3
39 -124 43 -124 1 0 60 23 131 50 71 28 131 50 132 50 2 0 3 32 3 70 0 39 -3
70 -7 70 -5 -1 -30 -10 -58 -21z"/>
<path d="M3562 3760 c0 -14 2 -19 5 -12 2 6 2 18 0 25 -3 6 -5 1 -5 -13z"/>
<path d="M3275 3740 c-3 -5 1 -10 9 -10 9 0 16 5 16 10 0 6 -4 10 -9 10 -6 0
-13 -4 -16 -10z"/>
<path d="M3710 3742 c0 -5 7 -13 16 -16 10 -4 14 -1 12 6 -5 15 -28 23 -28 10z"/>
<path d="M3368 3733 c6 -2 18 -2 25 0 6 3 1 5 -13 5 -14 0 -19 -2 -12 -5z"/>
<path d="M3418 3733 c7 -3 16 -2 19 1 4 3 -2 6 -13 5 -11 0 -14 -3 -6 -6z"/>
<path d="M3507 3663 c18 -2 50 -2 70 0 21 2 7 4 -32 4 -38 0 -55 -2 -38 -4z"/>
<path d="M409 3480 c-1 -5 -2 -15 -3 -21 -1 -14 72 -40 80 -28 3 5 12 2 21 -6
20 -20 37 -14 41 13 4 26 -26 42 -39 21 -7 -11 -9 -10 -9 5 0 14 -6 17 -25 14
-14 -3 -25 -1 -25 3 0 13 -40 11 -41 -1z"/>
<path d="M1205 2976 c-263 -278 -314 -342 -315 -399 0 -36 23 -80 52 -99 13
-8 164 -59 336 -113 306 -97 314 -100 327 -130 25 -62 27 -75 11 -75 -9 0 -25
-9 -36 -20 -19 -19 -20 -33 -20 -413 0 -466 -7 -437 106 -437 53 0 73 -3 72
-12 -2 -8 13 -15 37 -19 23 -4 -13 -7 -89 -8 l-128 -1 4 -40 4 -40 -91 0 -90
0 0 122 0 123 -488 3 -488 2 3 -125 3 -125 -137 0 -138 0 0 -85 0 -85 85 0 85
0 0 -42 c0 -24 0 -249 0 -501 l0 -457 1940 0 1940 0 0 303 c0 167 3 392 7 500
l6 197 94 0 93 0 0 85 0 85 -728 0 -728 0 4 40 4 40 -143 2 c-88 1 -124 3 -94
7 32 4 49 10 47 19 -1 9 19 12 77 12 71 0 82 2 95 22 14 19 16 76 16 415 0
380 -1 394 -20 413 -14 14 -33 20 -65 20 -54 0 -56 9 -20 87 1 1 157 45 347
97 190 52 358 102 373 112 31 20 55 63 55 99 0 55 -46 109 -331 389 l-293 288
-58 -64 c-31 -35 -57 -67 -58 -71 0 -4 77 -108 172 -230 94 -122 175 -227 180
-233 6 -8 -46 -22 -177 -48 -215 -42 -320 -46 -414 -17 l-61 19 -4 -32 c-3
-17 -7 -63 -10 -101 -3 -39 -13 -95 -23 -125 l-17 -55 -7 53 c-4 29 -9 56 -12
58 -3 3 -22 -47 -42 -110 l-36 -116 -197 0 -197 0 -35 106 c-19 58 -38 108
-42 110 -8 5 -13 -40 -10 -78 1 -10 -2 -18 -7 -18 -11 0 -46 108 -61 190 -18
96 -17 93 -48 86 -15 -4 -67 -9 -115 -13 -83 -6 -97 -3 -267 43 -99 26 -180
52 -180 57 0 4 77 116 171 248 l170 240 -56 65 c-31 35 -60 64 -64 64 -4 0
-128 -128 -276 -284z m1161 -1231 c47 -19 42 -46 -11 -63 -58 -19 -203 -12
-239 11 -26 18 -27 20 -11 37 21 23 39 27 143 29 53 1 95 -4 118 -14z m-1079
-380 c29 -20 37 -59 18 -95 -28 -54 -106 -53 -130 2 -15 36 -11 53 18 86 24
25 63 29 94 7z m-199 -7 c13 -13 16 -96 4 -114 -8 -14 -484 -31 -520 -20 -20
7 -22 14 -22 70 0 34 3 66 7 69 12 13 518 8 531 -5z m722 -42 c0 -2 -18 -6
-40 -8 -22 -2 -40 0 -40 4 0 5 18 8 40 8 22 0 40 -2 40 -4z m950 -4 c0 -4 -17
-6 -37 -4 -65 6 -70 10 -15 11 28 0 52 -3 52 -7z"/>
<path d="M1200 1350 c-27 -27 -26 -75 2 -94 29 -21 51 -20 78 2 43 35 15 112
-41 112 -10 0 -28 -9 -39 -20z"/>
<path d="M693 1333 c59 -2 154 -2 210 0 56 1 8 3 -108 3 -116 0 -161 -2 -102
-3z"/>
<path d="M693 1303 c59 -2 154 -2 210 0 56 1 8 3 -108 3 -116 0 -161 -2 -102
-3z"/>
<path d="M638 1273 c28 -2 76 -2 105 0 28 2 5 3 -53 3 -58 0 -81 -1 -52 -3z"/>
<path d="M2173 2897 c-28 -12 -29 -23 -4 -37 37 -19 121 -6 121 19 0 10 -48
29 -75 29 -11 0 -30 -5 -42 -11z m40 -24 c-7 -2 -19 -2 -25 0 -7 3 -2 5 12 5
14 0 19 -2 13 -5z"/>
<path d="M3665 2343 c-3 -32 -8 -70 -11 -84 -7 -36 17 -53 63 -46 25 4 40 2
47 -7 12 -16 96 -32 96 -19 -1 27 -30 126 -44 147 -19 30 -85 66 -120 66 -23
0 -25 -5 -31 -57z"/>
<path d="M815 2351 c-3 -5 -1 -12 5 -16 5 -3 10 1 10 9 0 18 -6 21 -15 7z"/>
<path d="M1050 2240 c-9 -6 -10 -10 -3 -10 6 0 15 5 18 10 8 12 4 12 -15 0z"/>
<path d="M1054 2175 c-10 -8 -14 -15 -7 -15 19 0 43 11 43 21 0 13 -14 11 -36
-6z"/>
<path d="M900 2125 c0 -5 5 -17 10 -25 5 -8 10 -10 10 -5 0 6 -5 17 -10 25 -5
8 -10 11 -10 5z"/>
<path d="M4086 1901 c-16 -83 -26 -157 -23 -164 3 -9 73 -27 204 -51 109 -21
206 -40 216 -43 16 -4 17 9 17 166 0 153 -2 170 -17 175 -17 5 -246 47 -328
61 l-40 6 -29 -150z"/>
<path d="M940 2025 c0 -5 5 -17 10 -25 5 -8 10 -10 10 -5 0 6 -5 17 -10 25 -5
8 -10 11 -10 5z"/>
<path d="M859 1951 c-16 -13 -20 -23 -14 -40 l7 -23 22 21 c12 12 28 21 34 21
7 0 12 6 12 14 0 22 -38 26 -61 7z"/>
<path d="M770 1935 c-17 -18 -21 -28 -13 -36 21 -21 48 -6 51 29 4 39 -7 41
-38 7z"/>
<path d="M3617 1853 c-3 -5 -9 -44 -13 -87 -7 -83 -2 -95 41 -96 16 0 21 -8
23 -36 4 -58 65 -124 114 -124 7 0 18 -10 23 -22 6 -13 19 -25 30 -27 11 -2
26 -12 33 -22 7 -11 23 -19 36 -19 12 0 27 -5 33 -11 7 -7 55 -13 115 -14 57
-2 111 -6 121 -10 9 -4 25 -4 35 0 9 4 31 7 48 6 18 -1 35 2 39 8 3 6 17 11
29 11 13 0 29 7 36 15 7 8 21 15 31 15 10 0 24 8 31 18 7 9 20 18 28 20 29 6
56 41 45 58 -14 21 -31 17 -27 -7 4 -23 -24 -37 -41 -20 -19 19 -29 12 -23
-14 8 -32 -20 -47 -39 -22 -18 25 -28 21 -21 -8 8 -31 -21 -48 -36 -22 -13 24
-30 21 -26 -5 4 -31 -37 -39 -47 -9 -8 28 -23 27 -27 -1 -2 -13 -10 -23 -18
-23 -8 0 -19 10 -25 23 -11 25 -25 29 -25 7 0 -28 -31 -30 -51 -4 l-19 24 -6
-23 c-9 -31 -48 -26 -52 6 -4 27 -18 29 -25 2 -8 -29 -37 -26 -37 5 0 29 -8
32 -25 8 -15 -20 -47 -10 -44 14 3 31 -1 36 -16 23 -24 -20 -48 -4 -41 25 6
23 4 25 -18 19 -29 -7 -78 17 -100 48 -9 12 -16 39 -16 59 0 32 5 40 35 58 36
21 71 68 81 109 8 30 5 32 -57 38 -30 2 -70 7 -90 10 -20 3 -39 2 -42 -3z"/>
<path d="M250 1740 c0 -5 -6 -10 -14 -10 -8 0 -18 -5 -22 -12 -5 -7 -3 -8 6
-3 8 5 11 4 6 -3 -3 -6 -2 -13 4 -17 5 -3 10 -11 10 -18 0 -6 -6 -2 -14 8 -8
12 -19 16 -31 11 -14 -5 -16 -13 -11 -38 6 -30 5 -31 -8 -13 -8 11 -11 24 -8
30 3 5 -10 0 -29 -12 -18 -12 -32 -26 -29 -30 3 -4 8 -7 13 -5 4 1 7 -2 7 -8
0 -13 -13 -13 -27 1 -8 8 -24 2 -57 -24 -26 -19 -42 -38 -37 -41 14 -9 42 5
34 17 -4 6 -1 7 7 2 10 -6 9 -11 -6 -22 -10 -7 -24 -11 -31 -9 -9 4 -12 -30
-12 -145 -1 -116 2 -148 12 -143 28 17 373 258 389 272 16 14 15 18 -23 72
-22 31 -46 57 -55 57 -9 0 -13 -6 -9 -16 5 -12 3 -13 -6 -4 -13 13 -3 37 12
28 15 -10 10 5 -12 36 -11 16 -28 29 -37 29 -15 0 -15 2 -2 10 13 8 12 10 -2
10 -10 0 -18 -4 -18 -10z m36 -48 c-4 -11 -14 -23 -23 -27 -15 -5 -15 -4 0 13
9 10 17 25 17 32 0 7 3 11 6 7 3 -3 3 -14 0 -25z m-51 -51 c3 -5 0 -13 -6 -17
-8 -5 -9 -3 -4 6 6 10 4 12 -9 7 -10 -4 -15 -3 -11 3 8 13 22 13 30 1z m45
-22 c0 -4 -10 -13 -22 -19 -21 -10 -21 -10 -6 3 14 11 15 16 5 26 -9 10 -8 11
6 6 9 -4 17 -11 17 -16z m-114 -24 c17 -17 15 -18 -41 -29 -22 -5 -26 -4 -15
4 13 9 13 11 0 21 -15 11 -4 9 40 -9 13 -5 13 -3 1 11 -17 21 -5 22 15 2z
m-81 -15 c3 -6 -1 -7 -9 -4 -18 7 -21 14 -7 14 6 0 13 -4 16 -10z m140 0 c-3
-5 -11 -10 -16 -10 -6 0 -7 5 -4 10 3 6 11 10 16 10 6 0 7 -4 4 -10z m-122
-81 c5 -3 2 -9 -5 -12 -9 -3 -14 3 -15 15 -1 11 1 16 5 12 4 -5 11 -12 15 -15z
m-53 -43 c0 -2 -7 -7 -16 -10 -8 -3 -12 -2 -9 4 6 10 25 14 25 6z"/>
</g>
</svg>
